<svg width="96" height="96" viewBox="0 0 96 96" fill="none" xmlns="http://www.w3.org/2000/svg">
<path d="M86.244 21.272L74.728 9.75601C74.1712 9.19805 73.5097 8.75568 72.7813 8.45432C72.053 8.15296 71.2722 7.99856 70.484 8.00001C68.944 8.00001 67.412 8.58401 66.24 9.75601L52 24H16C14.9391 24 13.9217 24.4214 13.1716 25.1716C12.4214 25.9217 12 26.9391 12 28V80C12 81.0609 12.4214 82.0783 13.1716 82.8284C13.9217 83.5786 14.9391 84 16 84H68C69.0609 84 70.0783 83.5786 70.8284 82.8284C71.5786 82.0783 72 81.0609 72 80V44L86.244 29.756C87.416 28.584 88 27.048 88 25.512C88 23.976 87.416 22.444 86.244 21.272ZM46 58.688L37.312 50L62.484 24.828L71.172 33.516L46 58.688ZM35.756 53.332L42.78 60.244L36 60L35.756 53.332ZM64 76H20V32H44L31.28 44.72C30.108 45.892 29.368 47.968 28.764 49.876C28.124 51.876 28 54.1 28 55.756V68H40.244C41.9 68 44.676 67.6 46.528 66.84C48.384 66.08 50.112 65.452 51.28 64.28L64 52V76ZM74 30.688L65.312 22L70.484 16.828L79.168 25.516L74 30.688Z" fill="black"/>
</svg>
