<svg width="23" height="29" viewBox="0 0 23 29" fill="none" xmlns="http://www.w3.org/2000/svg">
<path d="M18.9587 10.625H16.375V2.5C16.375 1.60625 15.6438 0.875 14.75 0.875H8.25C7.35625 0.875 6.625 1.60625 6.625 2.5V10.625H4.04125C2.595 10.625 1.86375 12.38 2.8875 13.4038L10.3462 20.8625C10.98 21.4963 12.0037 21.4963 12.6375 20.8625L20.0963 13.4038C21.12 12.38 20.405 10.625 18.9587 10.625ZM0.125 26.875C0.125 27.7687 0.85625 28.5 1.75 28.5H21.25C22.1437 28.5 22.875 27.7687 22.875 26.875C22.875 25.9813 22.1437 25.25 21.25 25.25H1.75C0.85625 25.25 0.125 25.9813 0.125 26.875Z" fill="black"/>
</svg>
