<svg width="358" height="358" viewBox="0 0 358 358" fill="none" xmlns="http://www.w3.org/2000/svg">
<g clip-path="url(#clip0_212_130)">
<path d="M179 0C80.141 0 0 80.141 0 179C0 277.859 80.141 358 179 358C277.859 358 358 277.859 358 179C358 80.141 277.859 0 179 0ZM114.672 71.1018C118.36 70.8843 121.693 73.0887 124.221 77.0013L148.693 123.412C151.27 128.911 149.806 134.8 145.962 138.729L134.753 149.938C134.061 150.887 133.606 151.954 133.595 153.129C137.893 169.768 150.933 185.117 162.438 195.672C173.942 206.227 186.307 220.517 202.358 223.903C204.342 224.456 206.773 224.655 208.193 223.335L221.215 210.072C225.711 206.664 232.214 205.013 237.013 207.799H237.232L281.391 233.867C287.873 237.93 288.545 245.784 283.904 250.561L253.489 280.736C248.997 285.343 243.03 286.891 237.232 286.898C211.591 286.13 187.363 273.545 167.463 260.612C134.799 236.849 104.836 207.376 86.0259 171.768C78.8116 156.836 70.3369 137.784 71.1456 121.118C71.2178 114.848 72.9142 108.706 77.3295 104.665L107.745 74.2489C110.115 72.2328 112.459 71.2325 114.672 71.1018Z" fill="black"/>
</g>
<defs>
<clipPath id="clip0_212_130">
<rect width="358" height="358" fill="white"/>
</clipPath>
</defs>
</svg>
