<svg width="39" height="39" viewBox="0 0 39 39" fill="none" xmlns="http://www.w3.org/2000/svg">
<path d="M30.875 4.875H8.125C6.3375 4.875 4.875 6.3375 4.875 8.125V30.875C4.875 32.6625 6.3375 34.125 8.125 34.125H30.875C32.6625 34.125 34.125 32.6625 34.125 30.875V8.125C34.125 6.3375 32.6625 4.875 30.875 4.875ZM11.375 11.375H14.625V14.625H11.375V11.375ZM11.375 17.875H14.625V21.125H11.375V17.875ZM11.375 24.375H14.625V27.625H11.375V24.375ZM27.625 27.625H17.875V24.375H27.625V27.625ZM27.625 21.125H17.875V17.875H27.625V21.125ZM27.625 14.625H17.875V11.375H27.625V14.625Z" fill="#110C0C"/>
</svg>
